<svg xmlns="http://www.w3.org/2000/svg" version="1.0" viewBox="0 0 724 1080"><path d="M328 452.6c-9.6 4.4-14.9 10.7-19.4 23.3-1.5 4.1-4 10.6-5.6 14.5s-9.4 23.7-17.5 44.1c-8 20.3-17 42.8-19.9 50-11.9 29.4-11.9 29.3-11.3 33.6 1 7.7 6.8 12.9 14.4 12.9 5.7 0 7.7-.9 22.2-9.9 21-13 50.4-28.2 66.6-34.6 3.9-1.5 12-4.6 18-7 50-19.5 118.9-31.1 173-29 19.2.7 35.8 2.7 38.1 4.6 1.9 1.6 1.7 2.6-.6 3.2-1.9.5-2 1.4-2 30.1 0 32.2.3 34.3 5.5 38.4 4.2 3.3 13.3 3.1 17.4-.3 1.6-1.4 3.4-4 4-5.8.8-2.2 1-27.5.9-79.8l-.3-76.5-2.8-4.2c-1.5-2.3-4.6-5.4-6.9-6.9-3.5-2.4-5.2-2.8-10.8-2.8-9.9 0-13.3 3-26.2 22.9-5.7 8.7-13 20-16.3 25-3.3 5.1-10 15.3-14.9 22.8-4.9 7.6-9.3 13.5-9.7 13.3-.6-.5-11.6-16.7-19.4-29-22.5-35.2-29.3-45.5-31.9-48.4-6.2-6.7-15.3-8.8-23.1-5.2-4.3 1.9-10 7.8-11.6 11.8-.5 1.3-.9 18.7-.9 38.9V539h3.1c2.7 0 11.1-1.1 20.7-2.6l3.2-.5V516c0-10.9.4-20.1.8-20.4.5-.3 1.7.9 2.7 2.7s6.4 10.2 12 18.7 11.4 17.6 12.9 20.2l2.7 4.7-2.3.5c-1.3.3-7.4.8-13.7 1.1-16.9.9-32.2 3-55.9 7.6-12.2 2.4-21.7 3.8-22.1 3.3-1-1.1-21.4-52.1-31.8-79.4-3.4-9.2-6.7-14.3-11.2-17.9-9.6-7.6-20.1-9.2-30.1-4.5m13.8 27.6c1 1.3 8.3 19.8 16.7 42.8 2.4 6.3 6.6 17.2 9.4 24.2s5.1 13.3 5.1 14.1c0 .9-4.1 2.8-11.7 5.3-14.7 4.7-37.7 14.2-55.3 22.6-7.4 3.6-13.6 6.2-13.8 5.8s2.5-7.7 5.9-16.1c3.3-8.5 7.4-18.8 8.9-22.9 1.6-4.1 6.1-15.8 10-26s9.5-24.8 12.5-32.6c2.9-7.8 5.9-15.1 6.6-16.2 1.5-2.4 4.1-2.9 5.7-1M584.1 521c0 14.4-.1 26.3-.3 26.5-.3.3-14.6-1.4-26.6-3.2l-5.3-.8 5.6-9c3.1-5 8-12.6 10.9-17s7.5-11.5 10.2-15.7 5-7.5 5.2-7.4c.1.2.3 12.1.3 26.6"/><path d="M332.3 536c-4.1 2.4-6.3 6.7-6.3 12.1 0 3.5.6 4.8 3.9 8 3.5 3.6 4.3 3.9 9.3 3.9 6.4 0 10.2-2.3 12.4-7.6 1.9-4.5 1.8-7.3-.4-11.3-3.5-6.6-12.5-9-18.9-5.1m-187.9-81.1c-8.4 2.4-14.9 6.4-21.9 13.6-7.2 7.2-10.8 14.3-13.1 25.6-3.5 17.5 1.3 33.6 13.8 45.5 7.2 6.9 13.5 10.5 22.9 12.9 7.3 1.9 27 2.6 27.6 1 .2-.6-1.3-1.9-3.3-3-5.8-3.1-13.7-11.6-17.4-18.8-2.3-4.4-4.4-7-6.1-7.7-3.4-1.5-9.5-7.8-10.8-11.3-.6-1.6-1.1-5.7-1.1-9.3 0-7.6 2.1-12.6 7.5-17.2 7.1-6.3 7.2-6.3 48.3-6.2 23.2 0 38.7-.3 41.1-1 4.7-1.2 8.8-5.7 9.7-10.6.9-4.7-1.9-10.8-6.1-13.4-3.1-1.9-5-2-44.1-1.9-35.8 0-41.7.3-47 1.8"/><path d="M164 529c0 3 11.6 14 18.9 17.9 3.4 1.8 10.5 4.8 15.9 6.7 5.3 1.9 11.2 4.7 13.1 6.2 10.3 8.3 10.6 24.4.8 33.9-7.8 7.6-5.8 7.3-51.4 7.3-37.5 0-41.1.2-44.9 1.9-4.6 2.1-7.4 6.8-7.4 12.3 0 4.5 1.9 7.8 6 10.6l3.5 2.3 44.5-.3c42.6-.4 44.7-.5 50.2-2.5 24.8-9.4 38.3-34.2 32.7-60.5-2.8-13-12.5-25.2-25.6-32.1-9.1-4.8-15.3-5.7-37.5-5.7-18.2 0-18.8.1-18.8 2m293.5 38.5c-.5.2-5.4 1.3-10.8 2.5l-9.8 2.2.3 24.8.3 24.9 3 3.1c4.4 4.6 9.3 5.7 15.1 3.5 8.2-3.1 8.4-3.8 8.4-34.8V567l-2.7.1c-1.6 0-3.2.2-3.8.4M403 581.4c-8.5 3.5-15.5 7.3-17 9-1.1 1.4-.4 3.8 4.5 16.4 6.8 17.6 8.5 20.5 12.9 22.6 9.7 4.6 20.6-1.7 20.6-11.9 0-4.2-12.8-37.6-14.5-38.1-.6-.2-3.5.7-6.5 2"/></svg>